<svg xmlns="http://www.w3.org/2000/svg" viewBox="0 0 64 64">
  <rect width="64" height="64" rx="14" fill="#102719"/>
  <rect x="7" y="7" width="50" height="50" rx="11" fill="#d6a72c"/>
  <path d="M16 38h6l4-12h14l5 12h3c3.3 0 6 2.7 6 6v2h-8.3a10 10 0 0 0-19.4 0H24a7 7 0 0 0-13.5 0H10v-2c0-3.3 2.7-6 6-6Z" fill="#102719"/>
  <path d="M29 21h10l3 10H26l3-10Z" fill="#102719"/>
  <circle cx="17" cy="46" r="5" fill="#102719" stroke="#f7e8b8" stroke-width="2"/>
  <circle cx="36" cy="46" r="8" fill="#102719" stroke="#f7e8b8" stroke-width="2"/>
</svg>